# xmcd
#
# Track frame offsets: 
#        150
#        12258
#        31980
#        45058
#        55705
#        69273
#        83888
#        99703
#        119638
#        131488
#        152013
#
# Disc length: 2191 seconds
#
# Revision: 3
# Processed by: cddbd v1.5.2PL0 Copyright (c) Steve Scherf et al.
# Submitted via: ExactAudioCopyFreeDBPlugin 1.0
#
DISCID=81088d0b
DTITLE=Aretha Franklin - Aretha Arrives
DYEAR=1967
DGENRE=Soul
TTITLE0=Satisfaction
TTITLE1=You Are My Sunshine
TTITLE2=Never Let Me Go
TTITLE3=96 Tears
TTITLE4=Prove It
TTITLE5=Night Life
TTITLE6=That's Life
TTITLE7=I Wonder
TTITLE8=Ain't Nobody (Gonna Turn Me Around)
TTITLE9=Going Down Slow
TTITLE10=Baby, I Love You
EXTD=
EXTT0=
EXTT1=
EXTT2=
EXTT3=
EXTT4=
EXTT5=
EXTT6=
EXTT7=
EXTT8=
EXTT9=
EXTT10=
PLAYORDER=
